<?xml version="1.0" encoding="utf-8" ?>
<svg xmlns="http://www.w3.org/2000/svg" xmlns:xlink="http://www.w3.org/1999/xlink" width="512" height="512">
	<path d="M273.719 12.2716L283.784 12.2446C289.247 12.2399 304.407 12.0001 306.689 19C307.468 21.3915 302.901 24.8 301.622 26.7268C301.972 33.6267 304.305 48.3009 306.334 54.7793C308.062 60.298 310.968 60.2044 316.206 61.9648L328.351 66.0275C337.97 69.561 347.445 73.8723 356.519 78.6338L386.54 61.9031C392.582 58.7264 400.322 54.3295 407.356 56.6175L408.406 56.955C413.987 58.9109 419.094 64.4272 423.395 68.2769L452.899 96.7268C454.918 98.8791 457.211 101.182 458.538 103.846L458.91 104.596C461.202 109.553 454.151 115.624 451.555 119.221C447.209 125.242 443.415 131.712 439.526 138.033C436.881 142.333 431.773 148.153 434.325 153.4L447.077 179.959C450.217 186.873 453.209 193.845 454.581 201.354C455.693 201.67 456.859 202.084 458.004 202.233L481.9 205.925C485.871 206.85 489.733 209.068 491.923 212.615L492.51 213.518C496.93 220.477 495.851 244.749 494.671 253.25L490.153 278.813C489.885 281.386 490.297 284.395 487.828 285.92C481.505 289.825 473.961 291.985 467.024 294.565C456.792 298.37 452.772 300.356 441.836 300.563C439.048 310.065 427.706 333.153 420.788 341.427L427.5 362.25C428.431 364.677 427.924 363.839 430.324 364.594C437.434 366.829 454.507 379.199 456.628 386.022C455.494 391.792 451.169 390.51 446.313 390.231C443.803 390.086 443.998 390.516 442.255 392.544C431.319 405.259 420.932 418.3 409.01 430.15L402.119 436.587C399.345 439.006 395.99 441.906 392.18 442.345L391.879 442.375C385.506 443.066 378.319 435.959 373.473 432.622L358.436 422.216C355.006 419.79 351.135 417.247 348.34 414.104L348.104 413.836C342.083 416.971 309.878 427.344 307.779 430.375L308.054 430.772C311.134 435.486 313.463 466.075 312.38 471.67C311.373 476.875 322.141 475.977 318.479 487.818L318.377 488.125C316.202 494.996 308.64 495.235 302.8 495.243L249.812 495.229L224.802 495.24C221.652 495.233 219.31 494.737 216.633 493.017L215.922 492.556C205.248 485.462 206.441 468.318 205.155 457.25C204.409 450.83 203.209 444.359 201.848 438.043L166.892 423.82C166.503 423.637 165.587 422.911 165.247 422.876C164.821 422.833 158.506 427.301 157.75 427.759L137.75 440.241C124.652 448.642 123.644 452.542 108.346 442.02C92.3284 431.003 78.0541 417.048 65.5802 402.165C61.4704 397.261 56.5267 392.874 57.6805 385.659L57.7527 385.25C58.7136 379.644 63.4558 376.717 67.005 372.768L88.6352 348.473L81.9681 337.953C74.9666 327.42 64.4864 311.946 59.937 300.058L40.5657 297.402C36.2651 296.936 36.4929 301.284 32.2702 302.608C25.4283 304.754 18.9171 299.608 17.2875 293.106L14.2111 258.566L14.1526 240.227C14.1654 232.364 12.6976 220.024 17.9476 213.377L18.2475 213C25.1528 204.23 38.486 205.728 48.6288 204.375C60.189 202.833 60.3511 203.554 65.1149 192.91L75.875 167.489C76.7868 165.138 80.7075 154.821 80.575 152.531C80.5217 151.608 66.5203 134.016 64.6603 131.467C62.6414 128.701 60.8753 125.725 58.7769 123.016C56.5198 120.102 53.0587 117.834 51.6062 114.412L51.4381 114C50.5343 111.842 50.338 109.04 51.115 106.807L51.2777 106.375C51.7052 105.21 52.1783 104.314 52.954 103.358L53.247 103C55.0026 100.821 57.5969 99.4535 59.5785 97.5003L98.2283 62.0449C100.022 60.5757 101.955 59.0645 103.246 57.1143L104.868 54.8162C106.134 53.2681 108.009 52.2845 109.663 51.2252C119.242 45.0911 122.118 48.2096 129.723 56.0561C133.858 60.3236 138.884 63.9749 144.063 66.8634C146.969 68.4842 149.954 69.6828 152.541 71.8359C159.85 69.2258 176.385 65.991 184.253 64.8154L197.102 62.528C201.149 61.4311 203.66 58.923 204.206 54.75C204.571 51.9679 204.95 35.0249 203.991 32.3306C203.598 31.2279 203.935 30.3443 204.192 29.2326C207.839 13.4378 225.976 14.9078 238.762 14.1892L273.719 12.2716Z"/>
	<defs>
		<linearGradient id="gradient_0" gradientUnits="userSpaceOnUse" x1="406.66678" y1="84.526711" x2="103.55371" y2="408.59012">
			<stop offset="0" stop-color="#006138"/>
			<stop offset="1" stop-color="#006C67"/>
		</linearGradient>
	</defs>
	<path fill="url(#gradient_0)" d="M280.992 34.6651C281.908 34.5857 282.838 34.7151 283.75 34.7995C288.334 37.5954 287.507 56.21 288.113 61.509C289.807 76.3437 296.625 79.3188 309.202 83.4175L342.915 96.8543C356.302 102.862 359.112 104.883 371.868 97.1403L401.75 79.7514C404.048 81.3184 405.955 83.2764 407.953 85.194L426.624 102.923C428.77 104.973 435.496 111.029 435.955 114.121C436.256 116.148 428.098 129.093 426.794 130.875C421.543 138.051 414.532 143.774 413.272 153.284L413.214 153.75C412.063 162.223 418.232 170.372 421.879 177.523C425.582 184.784 428.787 192.806 431.27 200.554C437.468 219.89 435.717 223.098 458.203 224.983L467.875 226.253C480.406 228.298 478.786 235.993 478.786 247.103L477.435 275.356C471.708 277.195 465.025 279.183 459.022 279.524L442.967 279.634C425.798 279.699 425.616 283.346 420.036 298.334L406.085 328.176C399.558 339.802 394.955 343.444 405.658 353.901C410.922 359.044 426.761 369.584 428.9 374.093C429.754 375.894 431.419 379.36 430.622 381.371L430.459 381.75C426.333 391.604 409.519 405.821 401.035 412.08C391.265 419.287 393.935 419.747 384.97 413.348C377.408 407.95 370.066 402.288 362.187 397.343C350.12 389.769 348.725 392.509 336.272 397.463L309.688 407.245C296.878 411.618 297.757 413.138 294.179 427.125C293.422 430.082 293.814 433.421 293.871 436.462L294.014 448.88C294.085 456.048 294.689 466.617 289.347 472.364L237.625 472.473L228.769 472.516C228.816 460.113 227.238 450.73 224.883 438.471C221.372 420.193 221.181 421.294 204.436 415.17L175.804 404.021C162.707 398.145 163.138 395.954 151.112 405.001L122.709 423.746L113.099 416.963C103.456 409.643 90.5118 398.114 83.4567 387.97L104.016 365.148C118.898 347.161 111.144 340.911 99.7622 324.281L82.0958 294.702C80.5127 291.333 79.1547 287.713 77.0685 284.614C72.1216 277.265 58.1939 278.766 50.5235 278.463C46.2521 278.294 42.0104 277.696 37.7619 277.235C37.2579 275.421 37.191 229.478 37.3401 229.073L68.4036 223.048C81.295 220.028 80.1545 215.279 84.7973 203.716L98.179 172.87C107.593 152.835 105.697 152.477 92.8931 134.356L83.4467 120.771C81.5452 117.948 79.4295 115.022 78.1067 111.878L79.2279 110.259C83.5438 104.667 89.2069 99.8329 94.4945 95.1829L115.352 76.8769C117.429 74.9631 116.741 74.6782 119 76.252L131.864 85.6548C146.594 96.3025 146.32 97.3103 161.919 92.1497L175.194 88.4207L199.738 83.8922C216.086 81.1152 227.508 78.8976 227.514 59.9971L227.491 51.0051C227.472 46.7129 227.906 41.6329 227.163 37.4279L280.992 34.6651Z"/>
	<path d="M239.669 118.356C242.795 117.999 246.156 118.233 249.305 118.228C293.706 118.157 335.697 139.493 364.112 173.4C391.24 205.771 402.447 248.753 383.999 288.521C368.985 320.885 345.218 348.053 311.054 360.375C299.12 364.68 286.598 366.696 274.719 371.074C267.504 373.402 261.055 373.763 253.588 373.742C226.88 373.67 199.251 363.936 178.764 346.546C165.711 335.466 148.831 314.283 139.662 299.193C100.858 235.331 137.889 144.926 208.336 123.475C218.516 120.375 229.093 119.12 239.669 118.356Z"/>
	<path fill="#FF714E" d="M344.105 185.956C367.253 210.489 376.421 240.907 365.251 272.784C352.467 309.265 320.853 338.571 283.927 349.777C284.642 346.835 292.718 343.075 295.384 341.121C299.655 337.99 303.701 334.047 307.606 330.458C342.376 298.498 360.808 252.878 348.772 205.75L345.379 193.74C344.749 191.373 343.961 188.759 344.084 186.305L344.105 185.956Z"/>
	<path fill="#FFD952" d="M283.927 349.777C275.057 352.32 276.739 351.733 268.432 351.536C261.591 351.374 254.811 351.95 247.931 351.421C219.32 349.221 195.906 334.979 177.579 313.617L165.25 297.762C162.001 293.264 158.768 288.707 156.178 283.789C134.465 242.566 149.648 189.759 184.37 160.837C201.482 146.583 225.7 140.493 247.631 140.455C284.936 140.391 320.243 157.223 344.105 185.956L344.084 186.305C343.961 188.759 344.749 191.373 345.379 193.74L348.772 205.75C360.808 252.878 342.376 298.498 307.606 330.458C303.701 334.047 299.655 337.99 295.384 341.121C292.718 343.075 284.642 346.835 283.927 349.777Z"/>
	<path d="M251.132 176.305C269.747 174.315 263.724 197.17 264.93 198.494C266.045 199.718 283.729 199.976 290.515 207.914C294.742 212.859 293.719 220.405 288.625 224.334C279.655 231.254 270.307 221.457 261.067 220.525C255.655 219.979 243.092 222.291 242.524 229.5C244.446 232.505 251.637 233.571 254.8 234.777C267.828 239.744 279.254 248.902 287.08 260.428C298.935 277.889 297.132 297.22 275.46 303.867L275.15 303.96C276.372 311.995 277.239 318.193 269.271 322.749C257.152 327.936 252.054 317.205 251.977 306.575C245.763 305.546 235.357 306.182 230.111 303.851C218.204 298.56 221.756 282.477 234.023 281.17C237.369 280.813 241.023 281.788 244.322 282.379C250.059 283.405 275.21 287.761 270.472 276.024C266.312 265.719 254.888 259.311 245.129 255.458L233.732 251.157C212.397 241.94 218.905 215.851 234.565 203.84C238.273 200.996 241.25 201.377 241.241 197.597C241.222 189.201 241.584 179.265 251.132 176.305Z"/>
</svg>
